# xmcd
# 
# Track frame offsets:
#     150
#     46683
#     76799
#     137588
#     180158
#     208712
#     268168
# 
# Disc length: 4292
# 
# Revision: 0
# Processed by: cddbd v1.5.2PL0 Copyright (c) Steve Scherf et al.
# Submitted via: fre:ac v1.0.17
# 
DISCID=5110c207
DTITLE=Never Go Back - Lee Child
DYEAR=0
DGENRE=
TTITLE0=Chapter 36
TTITLE1=Chapter 37
TTITLE2=Chapter 38
TTITLE3=Chapter 39
TTITLE4=Chapter 40
TTITLE5=Chapter 41
TTITLE6=Chapter 42
EXTD=
EXTT0=
EXTT1=
EXTT2=
EXTT3=
EXTT4=
EXTT5=
EXTT6=
PLAYORDER=
